<svg xmlns="http://www.w3.org/2000/svg" width="76.27" height="92.5" viewBox="0 0 76.27 92.5">
  <g id="Group_5681" data-name="Group 5681" transform="translate(0.77 0.5)">
    <line id="Line_432" data-name="Line 432" y1="89.5" transform="translate(1 1)" fill="none" stroke="#000" stroke-linecap="round" stroke-linejoin="round" stroke-miterlimit="10" stroke-width="3"/>
    <path id="Path_36082" data-name="Path 36082" d="M1,7.5l4.9-1a50.4,50.4,0,0,1,28,2.2l.3.1a63.523,63.523,0,0,0,37.1,2l2.7-.7v42l-5.5,1.4A52.928,52.928,0,0,1,38,51.9l-.3-.1A64.379,64.379,0,0,0,16,48,65.117,65.117,0,0,0,3.6,49.2L1,49.7" fill="none" stroke="#000" stroke-linecap="round" stroke-linejoin="round" stroke-miterlimit="10" stroke-width="3"/>
    <g id="Group_5680" data-name="Group 5680">
      <circle id="Ellipse_1420" data-name="Ellipse 1420" cx="12.9" cy="12.9" r="12.9" transform="matrix(0.995, -0.103, 0.103, 0.995, 23.337, 19.805)" fill="#8c46e8"/>
      <g id="Group_5679" data-name="Group 5679">
        <path id="Path_36083" data-name="Path 36083" d="M31.3,28a.215.215,0,0,0,.2-.2.574.574,0,0,0-.2-.7.3.3,0,0,0-.4,0q-.15,0-.3.3a.574.574,0,0,0,.2.7A.749.749,0,0,0,31.3,28Z" fill="#fff"/>
        <path id="Path_36084" data-name="Path 36084" d="M30.8,33.8h0a.517.517,0,0,0,.3-.7q0-.15-.3-.3a.3.3,0,0,0-.4,0q-.15,0-.3.3a.3.3,0,0,0,0,.4A.517.517,0,0,0,30.8,33.8Z" fill="#fff"/>
        <path id="Path_36085" data-name="Path 36085" d="M30.7,29.4l.3-.3a.57.57,0,1,0-1.1-.3v.4l.3.3C30.5,29.5,30.6,29.5,30.7,29.4Z" fill="#fff"/>
        <path id="Path_36086" data-name="Path 36086" d="M36.1,37.7l-.2-.1a.6.6,0,0,0-.4.1c-.1.1-.2.2-.2.3a.6.6,0,0,0,.1.4c.1.1.2.2.3.2H36c.1-.1.3-.2.3-.4.1-.1,0-.4-.2-.5Z" fill="#fff"/>
        <path id="Path_36087" data-name="Path 36087" d="M30.3,32.4h.2a.55.55,0,0,0,.3-.5.758.758,0,0,0-.2-.4c-.1-.1-.2-.1-.4-.1a.758.758,0,0,0-.4.2c-.1.1-.1.2-.1.4a.758.758,0,0,0,.2.4Z" fill="#fff"/>
        <path id="Path_36088" data-name="Path 36088" d="M31.5,35.1c.1-.1.2-.2.2-.3a.6.6,0,0,0-.1-.4c-.1-.1-.2-.2-.3-.2a.6.6,0,0,0-.4.1c-.1.1-.2.2-.2.3a.6.6,0,0,0,.1.4.467.467,0,0,0,.7.1Z" fill="#fff"/>
        <path id="Path_36089" data-name="Path 36089" d="M34.2,37.2q-.15,0-.3.3h0a.517.517,0,0,0,.3.7.3.3,0,0,0,.4,0c.1-.1.2-.1.3-.3a.3.3,0,0,0,0-.4q0-.15-.3-.3C34.5,37.1,34.4,37.1,34.2,37.2Z" fill="#fff"/>
        <path id="Path_36090" data-name="Path 36090" d="M33.5,36.5h0a.6.6,0,0,0-.4-.1c-.1,0-.3.1-.3.2a.483.483,0,0,0,.1.7,1.087,1.087,0,0,0,.5.1.215.215,0,0,0,.2-.2C33.7,37,33.7,36.6,33.5,36.5Z" fill="#fff"/>
        <path id="Path_36091" data-name="Path 36091" d="M32.4,35.5a.495.495,0,1,0-.7.7.471.471,0,0,0,.6.1l.1-.1C32.6,36.1,32.6,35.7,32.4,35.5Z" fill="#fff"/>
        <path id="Path_36092" data-name="Path 36092" d="M30.2,30.9h.3c.2-.1.3-.2.3-.4a.6.6,0,0,0-.1-.4.52.52,0,0,0-.4-.2.634.634,0,0,0-.6.5.6.6,0,0,0,.1.4C29.9,30.8,30.1,30.9,30.2,30.9Z" fill="#fff"/>
        <path id="Path_36093" data-name="Path 36093" d="M38.5,24.3h.3c.2-.1.3-.2.3-.4,0-.3-.2-.6-.4-.6-.3,0-.6.2-.6.4C38,24,38.2,24.2,38.5,24.3Z" fill="#fff"/>
        <path id="Path_36094" data-name="Path 36094" d="M42.2,26h0a.661.661,0,0,0,.6.1c.1,0,.1-.1.2-.1a.495.495,0,1,0-.7-.7A.428.428,0,0,0,42.2,26Z" fill="#fff"/>
        <path id="Path_36095" data-name="Path 36095" d="M32.1,26.8c.1,0,.1-.1.2-.1a.5.5,0,1,0-.7.1A.454.454,0,0,0,32.1,26.8Z" fill="#fff"/>
        <path id="Path_36096" data-name="Path 36096" d="M43.2,26.3h0c-.1.1-.2.2-.2.3a.6.6,0,0,0,.1.4.481.481,0,0,0,.6.2.1.1,0,0,0,.1-.1c.1-.1.2-.2.2-.3a.6.6,0,0,0-.1-.4A.467.467,0,0,0,43.2,26.3Z" fill="#fff"/>
        <path id="Path_36097" data-name="Path 36097" d="M41.1,25.2a.446.446,0,0,0,.5,0,.215.215,0,0,0,.2-.2c.1-.2.1-.6-.2-.7-.2-.1-.6-.1-.7.2A.527.527,0,0,0,41.1,25.2Z" fill="#fff"/>
        <path id="Path_36098" data-name="Path 36098" d="M34.4,25h0l.3-.3v-.4l-.3-.3H34a.548.548,0,0,0,.4,1Z" fill="#fff"/>
        <path id="Path_36099" data-name="Path 36099" d="M37.1,24.2h.2a.55.55,0,0,0,.3-.5.758.758,0,0,0-.2-.4c-.1-.1-.2-.1-.4-.1a.758.758,0,0,0-.4.2c-.1.1-.1.2-.1.4A.675.675,0,0,0,37.1,24.2Z" fill="#fff"/>
        <path id="Path_36100" data-name="Path 36100" d="M33.2,25.8a.1.1,0,0,0,.1-.1.5.5,0,1,0-.7-.1A.481.481,0,0,0,33.2,25.8Z" fill="#fff"/>
        <path id="Path_36101" data-name="Path 36101" d="M35.8,24.4h0a.51.51,0,1,0-.6-.4C35.2,24.4,35.5,24.5,35.8,24.4Z" fill="#fff"/>
        <path id="Path_36102" data-name="Path 36102" d="M44.1,33.3l-.3.3a.517.517,0,0,0,.3.7.3.3,0,0,0,.4,0l.3-.3a.517.517,0,0,0-.3-.7Z" fill="#fff"/>
        <path id="Path_36103" data-name="Path 36103" d="M43.2,34.8a.6.6,0,0,0-.1.4c0,.1.1.3.2.3a.454.454,0,0,0,.5,0,.215.215,0,0,0,.2-.2.483.483,0,0,0-.1-.7A.663.663,0,0,0,43.2,34.8Z" fill="#fff"/>
        <path id="Path_36104" data-name="Path 36104" d="M42.7,35.8c-.1,0-.3.1-.4.1a.52.52,0,0,0-.2.4c0,.1.1.3.1.4a.471.471,0,0,0,.6.1c.1,0,.1-.1.2-.1a.483.483,0,0,0,0-.7C43,35.8,42.8,35.8,42.7,35.8Z" fill="#fff"/>
        <path id="Path_36105" data-name="Path 36105" d="M40.2,24.6l.3-.3a.539.539,0,1,0-.7.3Z" fill="#fff"/>
        <path id="Path_36106" data-name="Path 36106" d="M45.2,32.1c-.1-.1-.2-.2-.3-.2a.6.6,0,0,0-.4.1c-.1.1-.2.2-.2.3a.6.6,0,0,0,.1.4c.1.1.2.2.3.2H45c.2-.1.3-.2.3-.4v-.1h0A.367.367,0,0,0,45.2,32.1Z" fill="#fff"/>
        <path id="Path_36107" data-name="Path 36107" d="M44,27.5a.517.517,0,0,0-.3.7h0l.3.3c.1.1.3,0,.4,0a.517.517,0,0,0,.3-.7h0A.517.517,0,0,0,44,27.5Z" fill="#fff"/>
        <path id="Path_36108" data-name="Path 36108" d="M41.6,36.7a.6.6,0,0,0-.4.1h0c-.1,0-.2.2-.2.3a.6.6,0,0,0,.1.4.574.574,0,0,0,.7.2h.1a.663.663,0,0,0,.2-.7C41.9,36.8,41.8,36.7,41.6,36.7Z" fill="#fff"/>
        <path id="Path_36109" data-name="Path 36109" d="M44.6,28.9c-.3.1-.5.3-.4.6,0,.1.1.3.2.3a.6.6,0,0,0,.4.1h.1c.2-.1.4-.4.3-.6C45.2,29.1,44.9,28.9,44.6,28.9Z" fill="#fff"/>
        <path id="Path_36110" data-name="Path 36110" d="M44.9,30.4h0a.5.5,0,0,0,0,1h.2a.55.55,0,0,0,.3-.5A.472.472,0,0,0,44.9,30.4Z" fill="#fff"/>
        <path id="Path_36111" data-name="Path 36111" d="M37.3,37.8h0a.6.6,0,0,0-.4.1.52.52,0,0,0-.2.4.6.6,0,0,0,.1.4.52.52,0,0,0,.4.2h.2a.55.55,0,0,0,.3-.5.6.6,0,0,0-.1-.4C37.6,37.9,37.4,37.8,37.3,37.8Z" fill="#fff"/>
        <path id="Path_36112" data-name="Path 36112" d="M38.7,37.7a.51.51,0,1,0,.2,1H39a.6.6,0,0,0,.3-.6A.675.675,0,0,0,38.7,37.7Z" fill="#fff"/>
        <path id="Path_36113" data-name="Path 36113" d="M40,37.4c-.1.1-.2.1-.3.3a.3.3,0,0,0,0,.4.517.517,0,0,0,.7.3h0a.539.539,0,0,0-.4-1Z" fill="#fff"/>
        <path id="Path_36114" data-name="Path 36114" d="M36.7,35.3h0a.6.6,0,0,0-.4.1c-.1.1-.2.2-.2.3a.6.6,0,0,0,.1.4c0,.1.1.1.2.2h.4c.2-.1.3-.2.3-.4A.441.441,0,0,0,36.7,35.3Z" fill="#fff"/>
        <path id="Path_36115" data-name="Path 36115" d="M35.5,34.8h0a.6.6,0,0,0-.4-.1c-.1,0-.2.1-.3.2a.6.6,0,0,0-.1.4c0,.1.1.2.2.3a.446.446,0,0,0,.5,0,.215.215,0,0,0,.2-.2C35.8,35.3,35.7,34.9,35.5,34.8Z" fill="#fff"/>
        <path id="Path_36116" data-name="Path 36116" d="M39.3,35h0a.539.539,0,1,0,.7.3A.517.517,0,0,0,39.3,35Z" fill="#fff"/>
        <path id="Path_36117" data-name="Path 36117" d="M41.8,30.6a.758.758,0,0,0,.2.4c.1.1.2.1.4.1h.2a.55.55,0,0,0,.3-.5h0a.758.758,0,0,0-.2-.4c-.1-.1-.2-.1-.4-.1A.536.536,0,0,0,41.8,30.6Z" fill="#fff"/>
        <path id="Path_36118" data-name="Path 36118" d="M33.7,33.9a.483.483,0,0,0,0,.7.471.471,0,0,0,.6.1l.1-.1a.52.52,0,0,0,.2-.4.6.6,0,0,0-.1-.4A.755.755,0,0,0,33.7,33.9Z" fill="#fff"/>
        <path id="Path_36119" data-name="Path 36119" d="M38,35.3a.758.758,0,0,0-.4.2c-.1.1-.1.2-.1.4a.56.56,0,0,0,.6.5h.2a.55.55,0,0,0,.3-.5A.576.576,0,0,0,38,35.3Z" fill="#fff"/>
        <path id="Path_36120" data-name="Path 36120" d="M41.2,34.3a.52.52,0,0,0-.4-.2.6.6,0,0,0-.4.1.483.483,0,0,0,0,.7.471.471,0,0,0,.6.1l.1-.1C41.4,34.8,41.4,34.5,41.2,34.3Z" fill="#fff"/>
        <path id="Path_36121" data-name="Path 36121" d="M42,33c-.3-.1-.6-.1-.7.2h0a.6.6,0,0,0-.1.4c0,.1.1.2.2.3a.446.446,0,0,0,.5,0,.215.215,0,0,0,.2-.2C42.4,33.5,42.3,33.2,42,33Z" fill="#fff"/>
        <path id="Path_36122" data-name="Path 36122" d="M42.4,31.6h0a.51.51,0,1,0-.2,1h.3c.2-.1.3-.2.3-.4A.441.441,0,0,0,42.4,31.6Z" fill="#fff"/>
        <path id="Path_36123" data-name="Path 36123" d="M35.1,30.5a.539.539,0,1,0,.3-.7A.517.517,0,0,0,35.1,30.5Z" fill="#fff"/>
        <path id="Path_36124" data-name="Path 36124" d="M37.8,29.3a.539.539,0,1,0,.3-.7A.517.517,0,0,0,37.8,29.3Z" fill="#fff"/>
      </g>
    </g>
  </g>
</svg>
